# xmcd
#
# Track frame offsets:
#	150
#	19182
#	40193
#	58116
#	79742
#	99568
#	102392
#	117524
#	142798
#	167300
#	193375
#
# Disc length: 2822 seconds
#
# Revision: 0
# Processed by: cddbd v1.5.2PL0 Copyright (c) Steve Scherf et al.
# Submitted via: audiograbber 1.83.01
#
DISCID=8f0b040b
DTITLE=Santers - Guitar Alley
DYEAR=1984
DGENRE=Heavy Metal
TTITLE0=Can't Shake It
TTITLE1=Hotline
TTITLE2=High Risk
TTITLE3=Hate To Love You
TTITLE4=Too Young To Die
TTITLE5=Loa
TTITLE6=Black Magic
TTITLE7=All Right Now
TTITLE8=Baby Blue
TTITLE9=Dreaming
TTITLE10=Stranded
EXTD=
EXTT0=
EXTT1=
EXTT2=
EXTT3=
EXTT4=
EXTT5=
EXTT6=
EXTT7=
EXTT8=
EXTT9=
EXTT10=
PLAYORDER=
